<?xml version="1.0" encoding="UTF-8" standalone="no"?>
<!-- Created with Inkscape (http://www.inkscape.org/) -->

<svg
   width="500"
   height="200"
   viewBox="0 0 100 40"
   version="1.1"
   id="svg5"
   xmlSpace="preserve"
   xmlns="http://www.w3.org/2000/svg"
   xmlnssvg="http://www.w3.org/2000/svg"><defs
     id="defs2"><rect
       x="148.87451"
       y="203.0107"
       width="519.7074"
       height="175.9426"
       id="rect186" /></defs><g
     id="layer1"><path
       d="m 28.11542,12.465044 c 0,0 0,0 0,0 0,-0.115478 0.108555,-0.230956 0.108555,-0.346434 0,0 0,0 0,-0.115478 0,0 0,0 0,-0.115478 0,-0.115478 0,-0.230957 0,-0.346435 0,0 0,0 0,-0.115478 0,-0.115478 -0.108555,-0.230957 -0.108555,-0.346435 0,0 0,0 0,0 -0.108553,-0.115479 -0.108553,-0.115479 -0.217107,-0.230957 L 15.957401,2.764872 c -0.325662,-0.230956 -0.868431,-0.230956 -1.194092,0 L 0.651322,13.157914 c 0,0 -0.108553,0.115478 -0.108553,0.115478 0,0 0,0 -0.108554,0 -0.108554,0.115479 -0.108554,0.230957 -0.217107,0.346435 0,0 0,0 0,0.115478 C 0,14.08174 0,14.197218 0,14.312696 c 0,0 0,0 0,0 v 6.928696 6.928694 c 0,0.346435 0.217108,0.808348 0.542769,0.923827 l 11.940912,8.083476 c 0.217108,0.115478 0.434215,0.230956 0.542769,0.230956 0.217108,0 0.434215,-0.115478 0.651322,-0.230956 L 27.789759,26.784347 c 0.217108,-0.230957 0.434216,-0.461913 0.434216,-0.808348 0,-0.346434 -0.108555,-0.692869 -0.325662,-0.923825 -0.976984,-1.039305 -1.194091,-2.540522 -0.542768,-3.926261 l 0.759875,-1.732174 c 0,-0.115479 0.108555,-0.230957 0.108555,-0.346435 0,0 0,-0.115478 0,-0.115478 0,0 0,0 0,0 0,-0.115478 0,-0.346434 -0.108555,-0.461912 0,0 0,-0.115479 0,-0.115479 0,-0.115478 -0.108553,-0.230956 -0.217107,-0.346434 0,0 0,0 0,0 -0.976984,-1.039305 -1.194091,-2.540522 -0.542768,-3.926261 z M 25.618684,18.70087 13.02645,27.939129 2.171075,20.664 v -4.157217 l 10.312606,6.928695 c 0.217108,0.115478 0.434215,0.230956 0.542769,0.230956 0.217108,0 0.434215,-0.115478 0.651322,-0.230956 l 11.181036,-8.198955 c -0.108554,1.154782 0.108554,2.309564 0.759876,3.464347 z M 13.02645,34.867823 2.171075,27.592694 v -4.157216 l 10.312606,6.928693 c 0.217108,0.115479 0.434215,0.230958 0.542769,0.230958 0.217108,0 0.434215,-0.115478 0.651322,-0.230958 l 11.181036,-8.198954 c -0.108554,1.270261 0.108554,2.540522 0.759876,3.579826 z"
       id="path19"
       style="stroke-width:1.11963" /><text
       xmlSpace="preserve"
       transform="matrix(0.21259197,0,0,0.21259197,-2.2898737,-36.196299)"
       id="text184"
       style="font-size:113.333px;white-space:pre;shape-inside:url(#rect186);display:inline;fill:#000000"><tspan
         x="148.875"
         y="306.4069"
         id="tspan9606"><tspan
           style="font-family:Ayuthaya;-inkscape-font-specification:Ayuthaya;fill:#c14953"
           id="tspan9602">u</tspan><tspan
           style="font-family:Ayuthaya;-inkscape-font-specification:Ayuthaya"
           id="tspan9604">Post</tspan></tspan></text></g><style
     type="text/css"
     id="style17">
	.st0{fill:#FFFFFF;}
</style></svg>
